M48
; DRILL file {KiCad (6.0.4)} date Wed Jun  8 08:17:48 2022
; FORMAT={-:-/ absolute / inch / decimal}
; #@! TF.CreationDate,2022-06-08T08:17:48+02:00
; #@! TF.GenerationSoftware,Kicad,Pcbnew,(6.0.4)
; #@! TF.FileFunction,MixedPlating,1,2
FMAT,2
INCH
; #@! TA.AperFunction,Plated,PTH,ViaDrill
T1C0.0236
; #@! TA.AperFunction,Plated,PTH,ComponentDrill
T2C0.0315
; #@! TA.AperFunction,Plated,PTH,ComponentDrill
T3C0.0394
; #@! TA.AperFunction,Plated,PTH,ComponentDrill
T4C0.0433
; #@! TA.AperFunction,Plated,PTH,ComponentDrill
T5C0.0472
; #@! TA.AperFunction,Plated,PTH,ComponentDrill
T6C0.0512
; #@! TA.AperFunction,Plated,PTH,ComponentDrill
T7C0.0591
; #@! TA.AperFunction,Plated,PTH,ComponentDrill
T8C0.1063
; #@! TA.AperFunction,NonPlated,NPTH,ComponentDrill
T9C0.0394
; #@! TA.AperFunction,NonPlated,NPTH,ComponentDrill
T10C0.0591
; #@! TA.AperFunction,NonPlated,NPTH,ComponentDrill
T11C0.1260
; #@! TA.AperFunction,NonPlated,NPTH,ComponentDrill
T12C0.1575
%
G90
G05
T1
X4.5988Y-3.7965
X4.7988Y-3.2465
X4.8951Y-3.6542
X4.9488Y-3.6965
X5.2488Y-3.2465
X5.6988Y-3.0965
X5.7Y-3.2965
X5.7Y-3.3965
X5.7Y-3.5965
X5.7988Y-3.7965
X5.8488Y-3.7965
X5.8488Y-4.1465
X5.8488Y-4.2965
X5.8488Y-4.4465
X6.4988Y-3.5965
X6.4988Y-4.1465
X6.4988Y-4.2965
X6.4988Y-4.4465
X6.5043Y-3.6512
X6.5988Y-3.1465
X6.5988Y-3.6981
X6.7988Y-3.0965
X6.7988Y-3.1465
X6.7988Y-3.2965
X6.7988Y-3.3965
X6.8988Y-3.7965
T2
X4.1988Y-5.1965
X4.1988Y-5.2949
X4.1988Y-5.4981
X4.1988Y-5.5965
X4.4488Y-3.9965
X4.4488Y-4.5965
X4.5988Y-3.9965
X4.5988Y-4.5965
X4.7488Y-3.9965
X4.7488Y-4.5965
X4.8Y-4.6965
X4.8984Y-4.6965
X5.0984Y-2.3469
X5.0984Y-2.6469
X5.1984Y-2.3469
X5.1984Y-2.6469
X5.2984Y-2.3469
X5.2984Y-2.6469
X5.3984Y-2.3469
X5.3984Y-2.6469
X5.4984Y-2.3469
X5.4984Y-2.6469
X5.5984Y-2.3469
X5.5984Y-2.6469
X5.649Y-2.7546
X5.6984Y-2.3469
X5.6984Y-2.6469
X5.6992Y-2.2398
X5.7474Y-2.7546
X5.7976Y-2.2398
X5.7984Y-2.3469
X5.7984Y-2.6469
X5.8984Y-2.3469
X5.8984Y-2.6469
X5.9984Y-2.3469
X5.9984Y-2.6469
X6.0984Y-2.3469
X6.0984Y-2.6469
X6.1984Y-2.3469
X6.1984Y-2.6469
X6.2984Y-2.3469
X6.2984Y-2.6469
X6.3984Y-2.3469
X6.3984Y-2.6469
X6.5988Y-3.9965
X6.5988Y-4.5965
X6.7488Y-3.9965
X6.7488Y-4.5965
X6.7988Y-2.3465
X6.7988Y-2.5465
X6.8988Y-3.9965
X6.8988Y-4.5965
X6.9502Y-2.8827
X6.9502Y-3.4827
X7.0488Y-3.9965
X7.0488Y-4.5965
X7.0988Y-2.3465
X7.0988Y-2.5465
X7.2988Y-5.1965
X7.2988Y-5.2949
X7.2988Y-5.4981
X7.2988Y-5.5965
T3
X3.4634Y-5.2981
X3.4634Y-5.4949
X4.0343Y-5.2981
X4.0343Y-5.3965
X4.0343Y-5.4949
X7.4634Y-5.2981
X7.4634Y-5.3965
X7.4634Y-5.4949
X7.8266Y-2.875
X7.9266Y-3.9465
X7.9266Y-4.0465
X7.9266Y-4.1465
X7.9266Y-4.2465
X7.9266Y-4.3465
X7.9266Y-4.4465
X8.0234Y-2.875
X8.0343Y-5.2981
X8.0343Y-5.4949
T4
X7.725Y-2.725
X8.125Y-2.725
T5
X4.8Y-4.8515
X4.9Y-4.8515
X5.0Y-4.8515
X5.1Y-4.8515
X5.2Y-4.8515
X5.3Y-4.8515
X5.4Y-4.8515
X5.5Y-4.8515
X5.6Y-4.8515
X5.7Y-4.8515
X5.8Y-4.8515
X5.9Y-4.8515
X6.0Y-4.8515
X6.1Y-4.8515
X6.2Y-4.8515
X6.3Y-4.8515
X6.4Y-4.8515
X6.5Y-4.8515
X6.6Y-4.8515
X6.7Y-4.8515
T6
X4.8951Y-4.2497
X4.8951Y-4.4465
X5.2888Y-4.3481
T7
X7.475Y-1.9494
X7.475Y-2.7506
T8
X4.372Y-2.8948
X4.372Y-4.8515
X7.128Y-2.8948
X7.128Y-4.8515
T9
X6.7988Y-2.0465
X7.0988Y-2.6465
T10
X7.475Y-2.1478
X7.475Y-2.5514
T11
X3.15Y-1.9
X3.15Y-5.9
X8.15Y-1.9
X8.15Y-5.9
T12
X5.0919Y-4.3422
T3
G00X7.775Y-2.3768
M15
G01X7.775Y-2.2744
M16
G05
G00X7.8459Y-2.1366
M15
G01X7.9325Y-2.1366
M16
G05
G00X8.023Y-2.3689
M15
G01X8.023Y-2.2823
M16
G05
T7
G00X3.7646Y-5.176
M15
G01X3.7134Y-5.176
M16
G05
G00X3.7646Y-5.617
M15
G01X3.7134Y-5.617
M16
G05
G00X7.7331Y-5.176
M15
G01X7.7843Y-5.176
M16
G05
G00X7.7331Y-5.617
M15
G01X7.7843Y-5.617
M16
G05
T0
M30
